<?xml version="1.0" encoding="UTF-8" standalone="no"?>
<!-- Created with Inkscape (http://www.inkscape.org/) -->

<svg
   width="79.375mm"
   height="79.375mm"
   viewBox="0 0 79.375 79.375"
   version="1.1"
   id="svg1"
   inkscape:version="1.3 (0e150ed, 2023-07-21)"
   sodipodi:docname="players.svg"
   xmlns:inkscape="http://www.inkscape.org/namespaces/inkscape"
   xmlns:sodipodi="http://sodipodi.sourceforge.net/DTD/sodipodi-0.dtd"
   xmlns="http://www.w3.org/2000/svg"
   xmlns:svg="http://www.w3.org/2000/svg">
  <sodipodi:namedview
     id="namedview1"
     pagecolor="#505050"
     bordercolor="#ffffff"
     borderopacity="1"
     inkscape:showpageshadow="0"
     inkscape:pageopacity="0"
     inkscape:pagecheckerboard="1"
     inkscape:deskcolor="#505050"
     inkscape:document-units="mm"
     inkscape:zoom="2.0863776"
     inkscape:cx="182.13386"
     inkscape:cy="207.29709"
     inkscape:window-width="1452"
     inkscape:window-height="1237"
     inkscape:window-x="167"
     inkscape:window-y="165"
     inkscape:window-maximized="0"
     inkscape:current-layer="layer1" />
  <defs
     id="defs1" />
  <g
     inkscape:label="Layer 1"
     inkscape:groupmode="layer"
     id="layer1"
     transform="translate(-65.352064,-108.7437)">
    <rect
       style="fill:none;stroke:#ffffff;stroke-width:2.64579;stroke-dasharray:none"
       id="rect74"
       width="76.72921"
       height="76.72921"
       x="66.674957"
       y="110.06659"
       ry="11.22532" />
    <g
       id="g110"
       transform="matrix(0.33666375,0,0,0.33666375,-21.252773,-384.81103)"
       style="stroke-width:2.97032">
      <circle
         style="fill:#ffffff;stroke:none;stroke-width:1.75334"
         id="circle84"
         cx="419.42587"
         cy="1642.0929"
         r="14.967093" />
      <path
         d="m 431.69538,1657.0657 a 14.967093,9.1408921 0 0 1 -0.0419,0.039 14.967093,9.1408921 0 0 1 -0.61753,0.4975 14.967093,9.1408921 0 0 1 -0.67179,0.4705 14.967093,9.1408921 0 0 1 -0.72244,0.4413 14.967093,9.1408921 0 0 1 -0.77049,0.4102 14.967093,9.1408921 0 0 1 -0.81443,0.3772 14.967093,9.1408921 0 0 1 -0.85472,0.3421 14.967093,9.1408921 0 0 1 -0.89039,0.3062 14.967093,9.1408921 0 0 1 -0.92294,0.2679 14.967093,9.1408921 0 0 1 -0.95085,0.2291 14.967093,9.1408921 0 0 1 -0.9741,0.1888 14.967093,9.1408921 0 0 1 -0.99322,0.1476 14.967093,9.1408921 0 0 1 -1.00717,0.1061 14.967093,9.1408921 0 0 1 -1.01648,0.064 14.967093,9.1408921 0 0 1 -1.02112,0.021 14.967093,9.1408921 0 0 1 -2.92024,-0.1758 14.967093,9.1408921 0 0 1 -2.80758,-0.5201 14.967093,9.1408921 0 0 1 -2.58744,-0.8446 14.967093,9.1408921 0 0 1 -2.26808,-1.1367 14.967093,9.1408921 0 0 1 -1.66191,-1.2369 c -0.4046,0.078 -0.80286,0.1654 -1.19011,0.2651 -0.41178,0.106 -0.81307,0.2238 -1.20303,0.3528 -0.38995,0.1291 -0.76844,0.2694 -1.13429,0.4201 -0.36586,0.1508 -0.71936,0.3119 -1.05885,0.4829 -0.33949,0.171 -0.6648,0.3517 -0.97566,0.5415 -0.31085,0.19 -0.60682,0.3889 -0.88676,0.5962 -0.27995,0.2074 -0.54389,0.423 -0.79065,0.6464 -0.24677,0.2234 -0.4765,0.4546 -0.68782,0.6928 -0.21131,0.2381 -0.40415,0.4835 -0.57774,0.735 -0.17359,0.2514 -0.32787,0.5092 -0.46147,0.7726 -0.1336,0.2634 -0.24663,0.5324 -0.33796,0.8064 -0.0913,0.274 -0.16094,0.5531 -0.20774,0.8363 -0.0468,0.2832 -0.0708,0.5704 -0.0708,0.8613 v 11.4728 c 0,0.291 0.024,0.5785 0.0708,0.8617 0.0468,0.2831 0.1164,0.562 0.20774,0.836 0.0913,0.274 0.20436,0.543 0.33796,0.8063 0.1336,0.2635 0.28788,0.5215 0.46147,0.773 0.17359,0.2515 0.36643,0.4966 0.57774,0.7347 0.21132,0.2382 0.44105,0.4693 0.68782,0.6928 0.24676,0.2234 0.5107,0.439 0.79065,0.6463 0.27994,0.2074 0.57591,0.4064 0.88676,0.5962 0.31086,0.1899 0.63617,0.3706 0.97566,0.5416 0.33949,0.1709 0.69299,0.3322 1.05885,0.4829 0.36585,0.1507 0.74434,0.291 1.13429,0.42 0.38996,0.1291 0.79125,0.2469 1.20303,0.3529 0.41178,0.106 0.83422,0.2003 1.26556,0.2818 0.43134,0.082 0.87171,0.1507 1.32033,0.2064 0.44862,0.055 0.90527,0.098 1.36891,0.1269 0.46364,0.029 0.93438,0.044 1.41077,0.044 h 16.13958 c 0.47638,0 0.94661,-0.014 1.41025,-0.044 0.46364,-0.028 0.92028,-0.071 1.36891,-0.1269 0.44862,-0.056 0.88951,-0.1247 1.32085,-0.2064 0.43133,-0.082 0.85325,-0.1758 1.26504,-0.2818 0.41178,-0.106 0.81358,-0.2238 1.20354,-0.3529 0.38996,-0.129 0.76792,-0.2693 1.13378,-0.42 0.36586,-0.1507 0.71936,-0.312 1.05885,-0.4829 0.33949,-0.171 0.66532,-0.3517 0.97617,-0.5416 0.31085,-0.1898 0.60682,-0.3888 0.88677,-0.5962 0.27994,-0.2073 0.54388,-0.4229 0.79065,-0.6463 0.24676,-0.2235 0.4765,-0.4546 0.68781,-0.6928 0.21131,-0.2381 0.40415,-0.4832 0.57774,-0.7347 0.17359,-0.2515 0.32787,-0.5095 0.46147,-0.773 0.1336,-0.2633 0.24663,-0.5323 0.33797,-0.8063 0.0913,-0.274 0.16093,-0.5529 0.20774,-0.836 0.0468,-0.2832 0.0708,-0.5707 0.0708,-0.8617 v -11.4728 c 0,-0.2909 -0.024,-0.5781 -0.0708,-0.8613 -0.0468,-0.2832 -0.11641,-0.5623 -0.20774,-0.8363 -0.0913,-0.274 -0.20437,-0.543 -0.33797,-0.8064 -0.1336,-0.2634 -0.28788,-0.5212 -0.46147,-0.7726 -0.17359,-0.2515 -0.36643,-0.4969 -0.57774,-0.735 -0.21131,-0.2382 -0.44105,-0.4694 -0.68781,-0.6928 -0.24677,-0.2234 -0.51071,-0.439 -0.79065,-0.6464 -0.27995,-0.2073 -0.57592,-0.4062 -0.88677,-0.5962 -0.31085,-0.1898 -0.63668,-0.3705 -0.97617,-0.5415 -0.33949,-0.171 -0.69299,-0.3321 -1.05885,-0.4829 -0.36586,-0.1507 -0.74382,-0.291 -1.13378,-0.4201 -0.38996,-0.129 -0.79176,-0.2468 -1.20354,-0.3528 -0.37934,-0.098 -0.7693,-0.1827 -1.16531,-0.2598 z"
         style="fill:#ffffff;stroke-width:1.75334"
         id="path84" />
      <rect
         style="fill:#ffffff;stroke:none;stroke-width:1.75334"
         id="rect86"
         width="43.656258"
         height="17.989162"
         x="397.59769"
         y="1668.079"
         ry="0" />
      <g
         id="g109"
         style="stroke-width:2.97032">
        <path
           d="m 468.90297,1668.079 h -21.82812 v 10.3838 7.6052 h 8.06979 c 0.47638,0 0.94661,-0.014 1.41025,-0.04 0.46364,-0.025 0.92028,-0.064 1.36891,-0.115 0.44862,-0.051 0.88951,-0.1125 1.32085,-0.1866 0.43132,-0.074 0.85324,-0.1591 1.26503,-0.2549 0.41178,-0.095 0.81359,-0.2027 1.20355,-0.3197 0.38996,-0.1162 0.76792,-0.2436 1.13378,-0.3801 0.36586,-0.1363 0.71936,-0.2824 1.05885,-0.4371 0.33949,-0.1547 0.66532,-0.3181 0.97617,-0.49 0.31085,-0.1717 0.60681,-0.352 0.88676,-0.5394 0.27994,-0.1877 0.54388,-0.3829 0.79065,-0.5851 0.24676,-0.2024 0.47651,-0.4114 0.68782,-0.627 0.21131,-0.2155 0.40415,-0.4373 0.57774,-0.665 0.17359,-0.2276 0.32787,-0.4611 0.46147,-0.6996 0.1336,-0.2383 0.24662,-0.4819 0.33796,-0.73 0.0913,-0.2479 0.16093,-0.5001 0.20774,-0.7563 0.0468,-0.2563 0.0708,-0.5166 0.0708,-0.7799 z"
           style="fill:#ffffff;stroke-width:1.75334"
           id="path97" />
        <path
           d="m 445.22535,1662.2923 c 0.0624,0.091 0.13431,0.176 0.19378,0.2682 0.21131,0.3276 0.40416,0.6648 0.57774,1.0108 0.17359,0.3459 0.32788,0.7006 0.46148,1.063 0.1336,0.3623 0.24666,0.7326 0.33796,1.1095 0.0913,0.377 0.16094,0.7607 0.20774,1.1503 0.0468,0.3895 0.0708,0.7847 0.0708,1.185 h 21.82812 c 0,-0.4003 -0.024,-0.7955 -0.0708,-1.185 -0.0468,-0.3896 -0.11641,-0.7733 -0.20774,-1.1503 -0.0913,-0.3769 -0.20436,-0.7472 -0.33796,-1.1095 -0.1336,-0.3624 -0.28788,-0.7171 -0.46147,-1.063 -0.17359,-0.346 -0.36643,-0.6832 -0.57774,-1.0108 -0.21131,-0.3276 -0.44106,-0.646 -0.68782,-0.9534 -0.24677,-0.3073 -0.51071,-0.604 -0.79065,-0.8893 -0.27995,-0.2852 -0.57591,-0.5588 -0.88676,-0.8201 -0.31085,-0.2611 -0.63668,-0.5095 -0.97617,-0.7447 -0.33949,-0.2352 -0.69299,-0.4572 -1.05885,-0.6646 -0.36586,-0.2074 -0.74382,-0.4002 -1.13378,-0.5777 -0.38996,-0.1775 -0.79177,-0.34 -1.20355,-0.4858 -0.37934,-0.1344 -0.76929,-0.251 -1.1653,-0.357 a 14.967093,12.575271 0 0 1 -0.0419,0.054 14.967093,12.575271 0 0 1 -0.61753,0.6842 14.967093,12.575271 0 0 1 -0.67179,0.6475 14.967093,12.575271 0 0 1 -0.72244,0.6067 14.967093,12.575271 0 0 1 -0.7705,0.5643 14.967093,12.575271 0 0 1 -0.81442,0.5194 14.967093,12.575271 0 0 1 -0.85473,0.4702 14.967093,12.575271 0 0 1 -0.89038,0.4212 14.967093,12.575271 0 0 1 -0.92294,0.3689 14.967093,12.575271 0 0 1 -0.95085,0.3148 14.967093,12.575271 0 0 1 -0.9741,0.2599 14.967093,12.575271 0 0 1 -0.99322,0.2031 14.967093,12.575271 0 0 1 -1.00717,0.1457 14.967093,12.575271 0 0 1 -1.01648,0.088 14.967093,12.575271 0 0 1 -1.02112,0.029 14.967093,12.575271 0 0 1 -1.8495,-0.153 z"
           style="fill:#ffffff;stroke-width:1.75334"
           id="path98" />
        <path
           d="m 436.21969,1631.9149 a 14.967093,14.967093 0 0 1 0.72864,0.8464 14.967093,14.967093 0 0 1 0.66456,0.9008 14.967093,14.967093 0 0 1 0.59583,0.9477 14.967093,14.967093 0 0 1 0.52297,0.9896 14.967093,14.967093 0 0 1 0.44751,1.0258 14.967093,14.967093 0 0 1 0.36949,1.0562 14.967093,14.967093 0 0 1 0.2899,1.0811 14.967093,14.967093 0 0 1 0.20826,1.1002 14.967093,14.967093 0 0 1 0.12506,1.1121 14.967093,14.967093 0 0 1 0.0419,1.1183 14.967093,14.967093 0 0 1 -0.0419,1.1188 14.967093,14.967093 0 0 1 -0.12506,1.112 14.967093,14.967093 0 0 1 -0.20826,1.0997 14.967093,14.967093 0 0 1 -0.2899,1.0811 14.967093,14.967093 0 0 1 -0.36949,1.0568 14.967093,14.967093 0 0 1 -0.44751,1.0257 14.967093,14.967093 0 0 1 -0.52297,0.9896 14.967093,14.967093 0 0 1 -0.59583,0.9478 14.967093,14.967093 0 0 1 -0.66456,0.9002 14.967093,14.967093 0 0 1 -0.72864,0.8465 14.967093,14.967093 0 0 0 1.52343,1.5239 14.967093,14.967093 0 0 0 2.83755,1.7828 14.967093,14.967093 0 0 0 3.16363,1.1069 14.967093,14.967093 0 0 0 3.33055,0.3752 14.967093,14.967093 0 0 0 1.11827,-0.042 14.967093,14.967093 0 0 0 1.1126,-0.125 14.967093,14.967093 0 0 0 1.09967,-0.2083 14.967093,14.967093 0 0 0 1.08107,-0.2894 14.967093,14.967093 0 0 0 1.05627,-0.37 14.967093,14.967093 0 0 0 1.02629,-0.4475 14.967093,14.967093 0 0 0 0.98961,-0.5229 14.967093,14.967093 0 0 0 0.94723,-0.5954 14.967093,14.967093 0 0 0 0.90072,-0.6645 14.967093,14.967093 0 0 0 0.84852,-0.7302 14.967093,14.967093 0 0 0 0.79117,-0.7917 14.967093,14.967093 0 0 0 0.73019,-0.8485 14.967093,14.967093 0 0 0 0.66456,-0.9002 14.967093,14.967093 0 0 0 0.59582,-0.9478 14.967093,14.967093 0 0 0 0.52297,-0.9896 14.967093,14.967093 0 0 0 0.44752,-1.0257 14.967093,14.967093 0 0 0 0.36948,-1.0568 14.967093,14.967093 0 0 0 0.28991,-1.0811 14.967093,14.967093 0 0 0 0.20826,-1.0997 14.967093,14.967093 0 0 0 0.12505,-1.112 14.967093,14.967093 0 0 0 0.0419,-1.1188 14.967093,14.967093 0 0 0 -0.0419,-1.1183 14.967093,14.967093 0 0 0 -0.12505,-1.1121 14.967093,14.967093 0 0 0 -0.20826,-1.1002 14.967093,14.967093 0 0 0 -0.28991,-1.0811 14.967093,14.967093 0 0 0 -0.36948,-1.0562 14.967093,14.967093 0 0 0 -0.44752,-1.0258 14.967093,14.967093 0 0 0 -0.52297,-0.9896 14.967093,14.967093 0 0 0 -0.59582,-0.9477 14.967093,14.967093 0 0 0 -0.66456,-0.9008 14.967093,14.967093 0 0 0 -0.73019,-0.8485 14.967093,14.967093 0 0 0 -0.79117,-0.7912 14.967093,14.967093 0 0 0 -0.84852,-0.7302 14.967093,14.967093 0 0 0 -0.90072,-0.6645 14.967093,14.967093 0 0 0 -0.94723,-0.5958 14.967093,14.967093 0 0 0 -0.98961,-0.523 14.967093,14.967093 0 0 0 -1.02629,-0.4475 14.967093,14.967093 0 0 0 -1.05627,-0.3695 14.967093,14.967093 0 0 0 -1.08107,-0.2899 14.967093,14.967093 0 0 0 -1.09967,-0.2078 14.967093,14.967093 0 0 0 -1.1126,-0.1255 14.967093,14.967093 0 0 0 -1.11827,-0.042 14.967093,14.967093 0 0 0 -3.33055,0.3752 14.967093,14.967093 0 0 0 -3.16363,1.1069 14.967093,14.967093 0 0 0 -2.83755,1.7833 14.967093,14.967093 0 0 0 -1.52343,1.5235 z"
           style="fill:#ffffff;stroke-width:1.75334"
           id="path99" />
        <rect
           style="fill:#ffffff;stroke:none;stroke-width:23.577;stroke-linecap:square;stroke-linejoin:round"
           id="rect101"
           width="21.828112"
           height="17.989042"
           x="447.07486"
           y="1668.079"
           ry="0"
           rx="0" />
        <path
           d="m 468.90297,1668.079 h -21.82812 v 10.3838 7.6052 h 8.06979 c 0.47638,0 0.94661,-0.014 1.41025,-0.04 0.46364,-0.025 0.92028,-0.064 1.36891,-0.115 0.44862,-0.051 0.88951,-0.1125 1.32085,-0.1866 0.43132,-0.074 0.85324,-0.1591 1.26503,-0.2549 0.41178,-0.095 0.81359,-0.2027 1.20355,-0.3197 0.38996,-0.1162 0.76792,-0.2436 1.13378,-0.3801 0.36586,-0.1363 0.71936,-0.2824 1.05885,-0.4371 0.33949,-0.1547 0.66532,-0.3181 0.97617,-0.49 0.31085,-0.1717 0.60681,-0.352 0.88676,-0.5394 0.27994,-0.1877 0.54388,-0.3829 0.79065,-0.5851 0.24676,-0.2024 0.47651,-0.4114 0.68782,-0.627 0.21131,-0.2155 0.40415,-0.4373 0.57774,-0.665 0.17359,-0.2276 0.32787,-0.4611 0.46147,-0.6996 0.1336,-0.2383 0.24662,-0.4819 0.33796,-0.73 0.0913,-0.2479 0.16093,-0.5001 0.20774,-0.7563 0.0468,-0.2563 0.0708,-0.5166 0.0708,-0.7799 z"
           style="fill:#ffffff;stroke-width:1.75334"
           id="path102" />
        <path
           d="m 445.22535,1662.2923 c 0.0624,0.091 0.13431,0.176 0.19378,0.2682 0.21131,0.3276 0.40416,0.6648 0.57774,1.0108 0.17359,0.3459 0.32788,0.7006 0.46148,1.063 0.1336,0.3623 0.24666,0.7326 0.33796,1.1095 0.0913,0.377 0.16094,0.7607 0.20774,1.1503 0.0468,0.3895 0.0708,0.7847 0.0708,1.185 h 21.82812 c 0,-0.4003 -0.024,-0.7955 -0.0708,-1.185 -0.0468,-0.3896 -0.11641,-0.7733 -0.20774,-1.1503 -0.0913,-0.3769 -0.20436,-0.7472 -0.33796,-1.1095 -0.1336,-0.3624 -0.28788,-0.7171 -0.46147,-1.063 -0.17359,-0.346 -0.36643,-0.6832 -0.57774,-1.0108 -0.21131,-0.3276 -0.44106,-0.646 -0.68782,-0.9534 -0.24677,-0.3073 -0.51071,-0.604 -0.79065,-0.8893 -0.27995,-0.2852 -0.57591,-0.5588 -0.88676,-0.8201 -0.31085,-0.2611 -0.63668,-0.5095 -0.97617,-0.7447 -0.33949,-0.2352 -0.69299,-0.4572 -1.05885,-0.6646 -0.36586,-0.2074 -0.74382,-0.4002 -1.13378,-0.5777 -0.38996,-0.1775 -0.79177,-0.34 -1.20355,-0.4858 -0.37934,-0.1344 -0.76929,-0.251 -1.1653,-0.357 a 14.967093,12.575271 0 0 1 -0.0419,0.054 14.967093,12.575271 0 0 1 -0.61753,0.6842 14.967093,12.575271 0 0 1 -0.67179,0.6475 14.967093,12.575271 0 0 1 -0.72244,0.6067 14.967093,12.575271 0 0 1 -0.7705,0.5643 14.967093,12.575271 0 0 1 -0.81442,0.5194 14.967093,12.575271 0 0 1 -0.85473,0.4702 14.967093,12.575271 0 0 1 -0.89038,0.4212 14.967093,12.575271 0 0 1 -0.92294,0.3689 14.967093,12.575271 0 0 1 -0.95085,0.3148 14.967093,12.575271 0 0 1 -0.9741,0.2599 14.967093,12.575271 0 0 1 -0.99322,0.2031 14.967093,12.575271 0 0 1 -1.00717,0.1457 14.967093,12.575271 0 0 1 -1.01648,0.088 14.967093,12.575271 0 0 1 -1.02112,0.029 14.967093,12.575271 0 0 1 -1.8495,-0.153 z"
           style="fill:#ffffff;stroke-width:1.75334"
           id="path103" />
        <path
           d="m 436.21969,1631.9149 a 14.967093,14.967093 0 0 1 0.72864,0.8464 14.967093,14.967093 0 0 1 0.66456,0.9008 14.967093,14.967093 0 0 1 0.59583,0.9477 14.967093,14.967093 0 0 1 0.52297,0.9896 14.967093,14.967093 0 0 1 0.44751,1.0258 14.967093,14.967093 0 0 1 0.36949,1.0562 14.967093,14.967093 0 0 1 0.2899,1.0811 14.967093,14.967093 0 0 1 0.20826,1.1002 14.967093,14.967093 0 0 1 0.12506,1.1121 14.967093,14.967093 0 0 1 0.0419,1.1183 14.967093,14.967093 0 0 1 -0.0419,1.1188 14.967093,14.967093 0 0 1 -0.12506,1.112 14.967093,14.967093 0 0 1 -0.20826,1.0997 14.967093,14.967093 0 0 1 -0.2899,1.0811 14.967093,14.967093 0 0 1 -0.36949,1.0568 14.967093,14.967093 0 0 1 -0.44751,1.0257 14.967093,14.967093 0 0 1 -0.52297,0.9896 14.967093,14.967093 0 0 1 -0.59583,0.9478 14.967093,14.967093 0 0 1 -0.66456,0.9002 14.967093,14.967093 0 0 1 -0.72864,0.8465 14.967093,14.967093 0 0 0 1.52343,1.5239 14.967093,14.967093 0 0 0 2.83755,1.7828 14.967093,14.967093 0 0 0 3.16363,1.1069 14.967093,14.967093 0 0 0 3.33055,0.3752 14.967093,14.967093 0 0 0 1.11827,-0.042 14.967093,14.967093 0 0 0 1.1126,-0.125 14.967093,14.967093 0 0 0 1.09967,-0.2083 14.967093,14.967093 0 0 0 1.08107,-0.2894 14.967093,14.967093 0 0 0 1.05627,-0.37 14.967093,14.967093 0 0 0 1.02629,-0.4475 14.967093,14.967093 0 0 0 0.98961,-0.5229 14.967093,14.967093 0 0 0 0.94723,-0.5954 14.967093,14.967093 0 0 0 0.90072,-0.6645 14.967093,14.967093 0 0 0 0.84852,-0.7302 14.967093,14.967093 0 0 0 0.79117,-0.7917 14.967093,14.967093 0 0 0 0.73019,-0.8485 14.967093,14.967093 0 0 0 0.66456,-0.9002 14.967093,14.967093 0 0 0 0.59582,-0.9478 14.967093,14.967093 0 0 0 0.52297,-0.9896 14.967093,14.967093 0 0 0 0.44752,-1.0257 14.967093,14.967093 0 0 0 0.36948,-1.0568 14.967093,14.967093 0 0 0 0.28991,-1.0811 14.967093,14.967093 0 0 0 0.20826,-1.0997 14.967093,14.967093 0 0 0 0.12505,-1.112 14.967093,14.967093 0 0 0 0.0419,-1.1188 14.967093,14.967093 0 0 0 -0.0419,-1.1183 14.967093,14.967093 0 0 0 -0.12505,-1.1121 14.967093,14.967093 0 0 0 -0.20826,-1.1002 14.967093,14.967093 0 0 0 -0.28991,-1.0811 14.967093,14.967093 0 0 0 -0.36948,-1.0562 14.967093,14.967093 0 0 0 -0.44752,-1.0258 14.967093,14.967093 0 0 0 -0.52297,-0.9896 14.967093,14.967093 0 0 0 -0.59582,-0.9477 14.967093,14.967093 0 0 0 -0.66456,-0.9008 14.967093,14.967093 0 0 0 -0.73019,-0.8485 14.967093,14.967093 0 0 0 -0.79117,-0.7912 14.967093,14.967093 0 0 0 -0.84852,-0.7302 14.967093,14.967093 0 0 0 -0.90072,-0.6645 14.967093,14.967093 0 0 0 -0.94723,-0.5958 14.967093,14.967093 0 0 0 -0.98961,-0.523 14.967093,14.967093 0 0 0 -1.02629,-0.4475 14.967093,14.967093 0 0 0 -1.05627,-0.3695 14.967093,14.967093 0 0 0 -1.08107,-0.2899 14.967093,14.967093 0 0 0 -1.09967,-0.2078 14.967093,14.967093 0 0 0 -1.1126,-0.1255 14.967093,14.967093 0 0 0 -1.11827,-0.042 14.967093,14.967093 0 0 0 -3.33055,0.3752 14.967093,14.967093 0 0 0 -3.16363,1.1069 14.967093,14.967093 0 0 0 -2.83755,1.7833 14.967093,14.967093 0 0 0 -1.52343,1.5235 z"
           style="fill:#ffffff;stroke-width:1.75334"
           id="path104" />
        <rect
           style="fill:#ffffff;stroke:none;stroke-width:23.577;stroke-linecap:square;stroke-linejoin:round"
           id="rect104"
           width="21.828112"
           height="17.989042"
           x="447.07486"
           y="1668.079"
           ry="0"
           rx="0" />
        <path
           d="m 468.90297,1668.079 h -21.82812 v 10.3838 7.6052 h 8.06979 c 0.47638,0 0.94661,-0.014 1.41025,-0.04 0.46364,-0.025 0.92028,-0.064 1.36891,-0.115 0.44862,-0.051 0.88951,-0.1125 1.32085,-0.1866 0.43132,-0.074 0.85324,-0.1591 1.26503,-0.2549 0.41178,-0.095 0.81359,-0.2027 1.20355,-0.3197 0.38996,-0.1162 0.76792,-0.2436 1.13378,-0.3801 0.36586,-0.1363 0.71936,-0.2824 1.05885,-0.4371 0.33949,-0.1547 0.66532,-0.3181 0.97617,-0.49 0.31085,-0.1717 0.60681,-0.352 0.88676,-0.5394 0.27994,-0.1877 0.54388,-0.3829 0.79065,-0.5851 0.24676,-0.2024 0.47651,-0.4114 0.68782,-0.627 0.21131,-0.2155 0.40415,-0.4373 0.57774,-0.665 0.17359,-0.2276 0.32787,-0.4611 0.46147,-0.6996 0.1336,-0.2383 0.24662,-0.4819 0.33796,-0.73 0.0913,-0.2479 0.16093,-0.5001 0.20774,-0.7563 0.0468,-0.2563 0.0708,-0.5166 0.0708,-0.7799 z"
           style="fill:#ffffff;stroke-width:1.75334"
           id="path105" />
        <path
           d="m 445.22535,1662.2923 c 0.0624,0.091 0.13431,0.176 0.19378,0.2682 0.21131,0.3276 0.40416,0.6648 0.57774,1.0108 0.17359,0.3459 0.32788,0.7006 0.46148,1.063 0.1336,0.3623 0.24666,0.7326 0.33796,1.1095 0.0913,0.377 0.16094,0.7607 0.20774,1.1503 0.0468,0.3895 0.0708,0.7847 0.0708,1.185 h 21.82812 c 0,-0.4003 -0.024,-0.7955 -0.0708,-1.185 -0.0468,-0.3896 -0.11641,-0.7733 -0.20774,-1.1503 -0.0913,-0.3769 -0.20436,-0.7472 -0.33796,-1.1095 -0.1336,-0.3624 -0.28788,-0.7171 -0.46147,-1.063 -0.17359,-0.346 -0.36643,-0.6832 -0.57774,-1.0108 -0.21131,-0.3276 -0.44106,-0.646 -0.68782,-0.9534 -0.24677,-0.3073 -0.51071,-0.604 -0.79065,-0.8893 -0.27995,-0.2852 -0.57591,-0.5588 -0.88676,-0.8201 -0.31085,-0.2611 -0.63668,-0.5095 -0.97617,-0.7447 -0.33949,-0.2352 -0.69299,-0.4572 -1.05885,-0.6646 -0.36586,-0.2074 -0.74382,-0.4002 -1.13378,-0.5777 -0.38996,-0.1775 -0.79177,-0.34 -1.20355,-0.4858 -0.37934,-0.1344 -0.76929,-0.251 -1.1653,-0.357 a 14.967093,12.575271 0 0 1 -0.0419,0.054 14.967093,12.575271 0 0 1 -0.61753,0.6842 14.967093,12.575271 0 0 1 -0.67179,0.6475 14.967093,12.575271 0 0 1 -0.72244,0.6067 14.967093,12.575271 0 0 1 -0.7705,0.5643 14.967093,12.575271 0 0 1 -0.81442,0.5194 14.967093,12.575271 0 0 1 -0.85473,0.4702 14.967093,12.575271 0 0 1 -0.89038,0.4212 14.967093,12.575271 0 0 1 -0.92294,0.3689 14.967093,12.575271 0 0 1 -0.95085,0.3148 14.967093,12.575271 0 0 1 -0.9741,0.2599 14.967093,12.575271 0 0 1 -0.99322,0.2031 14.967093,12.575271 0 0 1 -1.00717,0.1457 14.967093,12.575271 0 0 1 -1.01648,0.088 14.967093,12.575271 0 0 1 -1.02112,0.029 14.967093,12.575271 0 0 1 -1.8495,-0.153 z"
           style="fill:#ffffff;stroke-width:1.75334"
           id="path107" />
        <path
           d="m 436.21969,1631.9149 a 14.967093,14.967093 0 0 1 0.72864,0.8464 14.967093,14.967093 0 0 1 0.66456,0.9008 14.967093,14.967093 0 0 1 0.59583,0.9477 14.967093,14.967093 0 0 1 0.52297,0.9896 14.967093,14.967093 0 0 1 0.44751,1.0258 14.967093,14.967093 0 0 1 0.36949,1.0562 14.967093,14.967093 0 0 1 0.2899,1.0811 14.967093,14.967093 0 0 1 0.20826,1.1002 14.967093,14.967093 0 0 1 0.12506,1.1121 14.967093,14.967093 0 0 1 0.0419,1.1183 14.967093,14.967093 0 0 1 -0.0419,1.1188 14.967093,14.967093 0 0 1 -0.12506,1.112 14.967093,14.967093 0 0 1 -0.20826,1.0997 14.967093,14.967093 0 0 1 -0.2899,1.0811 14.967093,14.967093 0 0 1 -0.36949,1.0568 14.967093,14.967093 0 0 1 -0.44751,1.0257 14.967093,14.967093 0 0 1 -0.52297,0.9896 14.967093,14.967093 0 0 1 -0.59583,0.9478 14.967093,14.967093 0 0 1 -0.66456,0.9002 14.967093,14.967093 0 0 1 -0.72864,0.8465 14.967093,14.967093 0 0 0 1.52343,1.5239 14.967093,14.967093 0 0 0 2.83755,1.7828 14.967093,14.967093 0 0 0 3.16363,1.1069 14.967093,14.967093 0 0 0 3.33055,0.3752 14.967093,14.967093 0 0 0 1.11827,-0.042 14.967093,14.967093 0 0 0 1.1126,-0.125 14.967093,14.967093 0 0 0 1.09967,-0.2083 14.967093,14.967093 0 0 0 1.08107,-0.2894 14.967093,14.967093 0 0 0 1.05627,-0.37 14.967093,14.967093 0 0 0 1.02629,-0.4475 14.967093,14.967093 0 0 0 0.98961,-0.5229 14.967093,14.967093 0 0 0 0.94723,-0.5954 14.967093,14.967093 0 0 0 0.90072,-0.6645 14.967093,14.967093 0 0 0 0.84852,-0.7302 14.967093,14.967093 0 0 0 0.79117,-0.7917 14.967093,14.967093 0 0 0 0.73019,-0.8485 14.967093,14.967093 0 0 0 0.66456,-0.9002 14.967093,14.967093 0 0 0 0.59582,-0.9478 14.967093,14.967093 0 0 0 0.52297,-0.9896 14.967093,14.967093 0 0 0 0.44752,-1.0257 14.967093,14.967093 0 0 0 0.36948,-1.0568 14.967093,14.967093 0 0 0 0.28991,-1.0811 14.967093,14.967093 0 0 0 0.20826,-1.0997 14.967093,14.967093 0 0 0 0.12505,-1.112 14.967093,14.967093 0 0 0 0.0419,-1.1188 14.967093,14.967093 0 0 0 -0.0419,-1.1183 14.967093,14.967093 0 0 0 -0.12505,-1.1121 14.967093,14.967093 0 0 0 -0.20826,-1.1002 14.967093,14.967093 0 0 0 -0.28991,-1.0811 14.967093,14.967093 0 0 0 -0.36948,-1.0562 14.967093,14.967093 0 0 0 -0.44752,-1.0258 14.967093,14.967093 0 0 0 -0.52297,-0.9896 14.967093,14.967093 0 0 0 -0.59582,-0.9477 14.967093,14.967093 0 0 0 -0.66456,-0.9008 14.967093,14.967093 0 0 0 -0.73019,-0.8485 14.967093,14.967093 0 0 0 -0.79117,-0.7912 14.967093,14.967093 0 0 0 -0.84852,-0.7302 14.967093,14.967093 0 0 0 -0.90072,-0.6645 14.967093,14.967093 0 0 0 -0.94723,-0.5958 14.967093,14.967093 0 0 0 -0.98961,-0.523 14.967093,14.967093 0 0 0 -1.02629,-0.4475 14.967093,14.967093 0 0 0 -1.05627,-0.3695 14.967093,14.967093 0 0 0 -1.08107,-0.2899 14.967093,14.967093 0 0 0 -1.09967,-0.2078 14.967093,14.967093 0 0 0 -1.1126,-0.1255 14.967093,14.967093 0 0 0 -1.11827,-0.042 14.967093,14.967093 0 0 0 -3.33055,0.3752 14.967093,14.967093 0 0 0 -3.16363,1.1069 14.967093,14.967093 0 0 0 -2.83755,1.7833 14.967093,14.967093 0 0 0 -1.52343,1.5235 z"
           style="fill:#ffffff;stroke-width:1.75334"
           id="path108" />
        <rect
           style="fill:#ffffff;stroke:none;stroke-width:23.577;stroke-linecap:square;stroke-linejoin:round"
           id="rect108"
           width="21.828112"
           height="17.989042"
           x="447.07486"
           y="1668.079"
           ry="0"
           rx="0" />
      </g>
    </g>
  </g>
</svg>
